<svg xmlns="http://www.w3.org/2000/svg" viewBox="0 0 320 120" role="img" aria-labelledby="jqTitle jqDesc">
  <title id="jqTitle">jQuery</title>
  <desc id="jqDesc">Bright jQuery wordmark with arc accent</desc>
  <path fill="#2D7DBF" d="M53 71c-18.5-9-28.6-22.6-30.4-40.8 8.9 13.5 21.6 23.6 38.1 30.2-5 3.2-7.5 6.7-7.7 10.6Z"/>
  <path fill="#78C6F0" d="M66.5 82.4C38.8 73.1 22 56.7 16 33.2c14.2 18.2 33.9 31.2 59.1 39-5.7 4.1-8.6 7.5-8.6 10.2Z"/>
  <path fill="#BEEBFF" d="M82.6 95.2C47 87.4 22 68.8 7.7 39.6c18.5 23.4 44.7 39.6 78.5 48.7-2.2 2.6-3.4 4.9-3.6 6.9Z"/>
  <path fill="#F4F8FF" d="M110.8 80.7V34h17.1v46.1c0 11.7-6.4 17.6-19.2 17.6-3.6 0-6.7-.4-9.2-1.2V82.4c2 .7 4 .9 5.8.9 3.7 0 5.5-.9 5.5-2.6Zm45.6 16.1c-8.4 0-14.9-2.1-19.6-6.4-4.7-4.3-7-10.2-7-17.8V48h17.1v23.6c0 3.5.8 6.3 2.3 8.4 1.5 2.1 3.9 3.1 7.1 3.1 3.2 0 5.6-1 7.1-3.1 1.6-2.1 2.3-4.9 2.3-8.4V48h17.1v24.6c0 7.6-2.3 13.5-7 17.8-4.7 4.3-11.2 6.4-19.4 6.4Zm34.3-.8V48h15.7v6.6c3.8-5.1 9.1-7.7 15.9-7.7 6 0 10.8 1.9 14.4 5.7 3.6 3.8 5.5 9 5.5 15.8V96h-17.1V72c0-3.2-.8-5.6-2.3-7.3-1.5-1.7-3.6-2.6-6.1-2.6-2.6 0-4.8.9-6.5 2.6-1.7 1.8-2.5 4.2-2.5 7.3v24h-17Zm59.7 0V48h17.1v48h-17.1Zm8.6-52.6c-3 0-5.5-.9-7.4-2.8-1.9-1.9-2.8-4.1-2.8-6.8 0-2.7.9-4.9 2.8-6.8 1.9-1.9 4.3-2.8 7.4-2.8 3 0 5.5.9 7.3 2.8 1.9 1.9 2.8 4.1 2.8 6.8 0 2.7-.9 4.9-2.8 6.8-1.8 1.9-4.3 2.8-7.3 2.8Zm38.8 53.8c-5.4 0-10.5-.8-15.4-2.5V81.6c4.9 2.3 9.6 3.4 14.1 3.4 4.6 0 7-.9 7-2.8 0-.9-.6-1.7-1.7-2.4-1.1-.7-3.4-1.5-6.8-2.5-4.9-1.4-8.6-2.8-11.3-4.2-2.7-1.4-4.8-3.2-6.3-5.6-1.5-2.4-2.2-5.4-2.2-9.1 0-5.2 2-9.3 6.1-12.3 4.1-3.1 9.5-4.6 16.4-4.6 5.2 0 10.1.8 14.7 2.5v12.6c-4.6-2-8.8-2.9-12.8-2.9-4.1 0-6.1.9-6.1 2.8 0 .8.5 1.5 1.6 2.1 1 .6 3.2 1.3 6.6 2.2 3.8 1 7 2.2 9.7 3.5 2.6 1.3 4.9 3.2 6.8 5.7 1.9 2.5 2.9 5.7 2.9 9.7 0 5.3-2.1 9.5-6.3 12.5-4.2 3-10.1 4.5-17.6 4.5Z"/>
</svg>
